<svg width="27" height="27" viewBox="0 0 27 27" fill="none" xmlns="http://www.w3.org/2000/svg">
<path d="M13.5 27C6.04416 27 0 20.9558 0 13.5C0 6.04416 6.04416 0 13.5 0C20.9558 0 27 6.04416 27 13.5C27 20.9558 20.9558 27 13.5 27Z" fill="white"/>
<path d="M16.5989 18.8436C17.5518 19.2429 18.4726 18.2133 17.9698 17.3106L15.4319 12.7537L17.1134 7.81591C17.4464 6.8373 16.3557 5.98912 15.4892 6.55257L6.15929 12.6245C5.99339 12.7323 5.85989 12.8833 5.77329 13.0612C5.68669 13.2392 5.65029 13.4374 5.66789 13.6345C5.68559 13.8316 5.75669 14.0202 5.87349 14.1799C5.99029 14.3397 6.14849 14.4646 6.33099 14.5411L16.5989 18.8436Z" stroke="black" stroke-width="1.5"/>
</svg>
